#!OML:ASF H:\Martial Arts Walks\Project 1\Capture day 1\Session 1\male.ASF
:FULLY-SPECIFIED
:DEGREES
823
root -1.65 15.221 14.5844 -29.1304 17.3496 -11.0647
lowerback 27.9418 1.31219 -3.86149
upperback 8.57639 1.26657 5.59333
thorax -6.00145 0.624999 8.09664
lowerneck -0.309961 -6.14724 -6.3831
upperneck 10.1785 -8.65806 6.82149
head 3.65676 -4.25434 2.79023
rclavicle 3.34455e-014 2.11706e-014
rhumerus -40.5483 9.2519 -66.618
rradius 58.9984
rwrist -2.03957
rhand -15.1473 -47.6727
rfingers 7.12502
rthumb 11.0227 -77.3633
lclavicle 3.34455e-014 2.11706e-014
lhumerus -13.4031 -23.66 80.2469
lradius 88.3856
lwrist 31.6923
lhand -23.455 16.7171
lfingers 7.12502
lthumb 3.00365 46.6757
rfemur -130.053 -18.9162 23.6906
rtibia 116.656
rfoot -11.1275 -7.51679
rtoes -16.8149
lfemur 19.8171 -1.95968 -9.50303
ltibia 49.6594
lfoot -26.5824 34.6191
ltoes -5.84657
824
root -1.6765 15.1353 14.6944 -27.5838 16.9114 -10.8979
lowerback 26.3605 1.78115 -4.22881
upperback 8.32277 1.81943 5.78405
thorax -5.62531 0.889054 8.33226
lowerneck 0.0357688 -6.27402 -6.63025
upperneck 9.42834 -8.83869 7.22856
head 3.41462 -4.3511 2.96459
rclavicle 3.33834e-014 -3.8763e-015
rhumerus -40.5989 8.64735 -65.9996
rradius 58.8657
rwrist -2.3353
rhand -15.5905 -47.5606
rfingers 7.12502
rthumb 10.5951 -77.2735
lclavicle 3.33834e-014 -3.8763e-015
lhumerus -14.2672 -23.5965 80.7379
lradius 88.5376
lwrist 31.5513
lhand -23.076 16.2488
lfingers 7.12502
lthumb 3.36969 46.2019
rfemur -131.958 -17.6004 27.8802
rtibia 123.357
rfoot -11.388 -7.78411
rtoes -15.1113
lfemur 18.0332 -1.03126 -9.067
ltibia 51.2705
lfoot -27.6573 35.5137
ltoes -5.40023
825
root -1.69087 15.0334 14.8072 -25.9755 17.1465 -10.3051
lowerback 24.7358 2.1056 -4.92176
upperback 8.07106 2.10378 5.71575
thorax -5.16911 1.0196 8.56494
lowerneck 0.203969 -6.44913 -6.76183
upperneck 9.04585 -9.08325 7.49812
head 3.30753 -4.47413 3.06589
rclavicle -2.23633e-016 -2.28602e-015
rhumerus -40.5563 7.90667 -65.4391
rradius 58.6245
rwrist -2.69856
rhand -16.1122 -47.2379
rfingers 7.12502
rthumb 10.092 -76.9759
lclavicle -2.23633e-016 -2.28602e-015
lhumerus -15.1189 -23.6608 81.1309
lradius 88.7376
lwrist 31.6674
lhand -22.6456 15.6503
lfingers 7.12502
lthumb 3.78533 45.5965
rfemur -133.462 -16.9933 31.3831
rtibia 129.565
rfoot -11.1322 -7.91311
rtoes -13.3812
lfemur 16.2775 -0.851332 -9.54901
ltibia 52.7416
lfoot -28.1992 36.2975
ltoes -6.1774
826
root -1.69934 14.9171 14.9206 -24.3673 17.9807 -9.24989
lowerback 23.3597 2.2751 -6.04677
upperback 7.73303 2.08958 5.39973
thorax -4.86599 1.0089 8.87299
lowerneck 0.352924 -6.5663 -6.82279
upperneck 8.97435 -9.25858 7.67969
head 3.28542 -4.56046 3.12835
rclavicle 1.40516e-014 -2.66371e-014
rhumerus -40.5864 7.47319 -65.083
rradius 58.3247
rwrist -3.2976
rhand -15.865 -48.1156
rfingers 7.12502
rthumb 10.3304 -77.8419
lclavicle 1.40516e-014 -2.66371e-014
lhumerus -16.1 -23.7267 81.4333
lradius 88.9819
lwrist 32.1257
lhand -22.2677 15.0672
lfingers 7.12502
lthumb 4.15027 45.0066
rfemur -134.826 -17.1171 34.2081
rtibia 135.347
rfoot -9.97682 -7.59151
rtoes -13.3242
lfemur 14.6603 -1.17944 -10.8117
ltibia 54.0493
lfoot -28.5574 36.9233
ltoes -7.41859
827
root -1.70377 14.8031 15.0034 -22.7323 18.6659 -7.67697
lowerback 22.3651 2.56126 -7.3716
upperback 7.48862 2.18445 4.89441
thorax -4.66155 1.05158 9.05833
lowerneck -0.0411341 -6.65545 -7.19028
upperneck 9.29289 -9.41159 8.17452
head 3.49692 -4.61863 3.30969
rclavicle -2.04748e-014 -8.15017e-015
rhumerus -40.5721 6.98282 -64.7502
rradius 58.2084
rwrist -3.83142
rhand -16.2107 -47.524
rfingers 7.12502
rthumb 9.9969 -77.2666
lclavicle -2.04748e-014 -8.15017e-015
lhumerus -16.8331 -23.8708 81.5051
lradius 89.3566
lwrist 32.7822
lhand -21.3753 15.4475
lfingers 7.12502
lthumb 5.01203 45.3682
rfemur -135.639 -16.9522 36.1376
rtibia 140.437
rfoot -7.5067 -7.04388
rtoes -13.9552
lfemur 13.2982 -1.17685 -12.5147
ltibia 55.1346
lfoot -29.1618 37.2611
ltoes -8.21691
828
root -1.72879 14.6931 15.0929 -22.1333 18.6617 -6.98715
lowerback 22.4124 2.9315 -8.08941
upperback 7.2341 2.49096 4.68517
thorax -5.03996 1.22844 9.16176
lowerneck 0.156802 -6.66049 -7.15581
upperneck 9.42107 -9.45452 8.37253
head 3.5132 -4.63449 3.36804
rclavicle -1.36664e-015 -2.94201e-014
rhumerus -40.6231 6.53467 -64.6955
rradius 57.9584
rwrist -4.09084
rhand -16.4783 -47.785
rfingers 7.12502
rthumb 9.73869 -77.5398
lclavicle -1.36664e-015 -2.94201e-014
lhumerus -17.702 -23.8834 81.6709
lradius 89.4534
lwrist 33.1658
lhand -21.2715 14.0485
lfingers 7.12502
lthumb 5.11223 43.9668
rfemur -134.575 -16.46 38.1733
rtibia 144.518
rfoot -4.09736 -6.34267
rtoes -15.9382
lfemur 12.9189 -0.858675 -12.7003
ltibia 56.0529
lfoot -29.8997 37.2777
ltoes -9.30009
829
root -1.74125 14.5923 15.1546 -21.8262 18.9862 -5.95172
lowerback 23.0819 3.24498 -8.74115
upperback 7.15898 2.6745 4.27637
thorax -5.50175 1.34415 9.02605
lowerneck 0.258582 -6.9125 -6.7187
upperneck 9.26442 -9.77624 8.11072
head 3.44208 -4.79203 3.20942
rclavicle 1.31943e-014 -4.67144e-014
rhumerus -40.5489 6.06225 -64.6262
rradius 57.8324
rwrist -4.19906
rhand -15.862 -48.0741
rfingers 7.12502
rthumb 10.3333 -77.8002
lclavicle 1.31943e-014 -4.67144e-014
lhumerus -18.232 -23.9489 81.6223
lradius 89.6317
lwrist 33.4557
lhand -20.6001 13.4392
lfingers 7.12502
lthumb 5.76048 43.3409
rfemur -132.923 -17.1595 39.0799
rtibia 147.535
rfoot -0.43318 -4.67792
rtoes -17.8751
lfemur 12.8862 -0.675181 -13.4826
ltibia 56.766
lfoot -30.4611 37.3606
ltoes -10.2378
830
root -1.74706 14.5209 15.1803 -22.3312 19.271 -5.74477
lowerback 25.063 3.38835 -8.21995
upperback 7.05881 2.80582 3.98458
thorax -6.6113 1.46165 8.32873
lowerneck -0.250776 -7.04808 -6.97297
upperneck 9.65613 -9.99485 8.56107
head 3.69515 -4.87467 3.349
rclavicle 1.9133e-015 -3.1408e-014
rhumerus -40.6066 5.50703 -64.6086
rradius 57.9229
rwrist -4.16164
rhand -15.3055 -48.5013
rfingers 7.12502
rthumb 10.8701 -78.1999
lclavicle 1.9133e-015 -3.1408e-014
lhumerus -18.6294 -24.1147 81.4877
lradius 89.7542
lwrist 33.5767
lhand -19.8861 13.0612
lfingers 7.12502
lthumb 6.44977 42.943
rfemur -129.454 -19.2112 39.7003
rtibia 149.002
rfoot 2.15718 -3.10295
rtoes -18.4101
lfemur 13.2711 -0.613463 -13.3961
ltibia 57.35
lfoot -30.9596 37.206
ltoes -10.9342
831
root -1.75992 14.452 15.2328 -23.1164 19.5675 -5.61474
lowerback 27.0763 3.48124 -7.77825
upperback 7.05329 2.87221 3.75134
thorax -7.6058 1.53135 7.76269
lowerneck -0.327042 -7.0734 -7.2296
upperneck 9.62174 -10.0654 9.07655
head 3.74093 -4.89758 3.53942
rclavicle -1.29955e-014 -9.54166e-015
rhumerus -40.8226 5.14096 -64.7122
rradius 58.1513
rwrist -3.78587
rhand -15.0738 -48.0806
rfingers 7.12502
rthumb 11.0935 -77.7674
lclavicle -1.29955e-014 -9.54166e-015
lhumerus -18.959 -24.1591 81.3631
lradius 89.7278
lwrist 33.4331
lhand -19.3689 12.6251
lfingers 7.12502
lthumb 6.9491 42.491
rfemur -124.969 -22.1844 39.5076
rtibia 149.329
rfoot 3.65117 -1.83269
rtoes -19.0381
lfemur 14.0687 -0.554123 -13.1295
ltibia 57.7973
lfoot -31.3658 37.072
ltoes -11.7292
832
root -1.79275 14.4017 15.3568 -21.815 19.5316 -5.14272
lowerback 26.1135 3.66934 -8.18044
upperback 6.83069 3.05319 3.53521
thorax -7.41863 1.62159 7.69725
lowerneck 0.496565 -7.26454 -6.53753
upperneck 8.58478 -10.2876 8.84539
head 3.26594 -5.03013 3.39599
rclavicle -4.4155e-014 -3.97569e-016
rhumerus -41.1627 4.93664 -64.8876
rradius 58.5859
rwrist -3.81319
rhand -14.8402 -48.0812
rfingers 7.12502
rthumb 11.3189 -77.7558
lclavicle -4.4155e-014 -3.97569e-016
lhumerus -19.2266 -24.2414 81.2415
lradius 89.687
lwrist 33.0846
lhand -19.1703 12.4113
lfingers 7.12502
lthumb 7.14078 42.2708
rfemur -121.793 -23.6391 38.8447
rtibia 148.621
rfoot 4.83269 -1.30237
rtoes -17.6375
lfemur 13.2223 0.262788 -12.6931
ltibia 58.1145
lfoot -32.1575 36.6677
ltoes -12.405
833
root -1.81732 14.3579 15.4809 -20.4283 19.7963 -4.8791
lowerback 25.0538 3.66961 -8.21933
upperback 6.67076 3.1073 3.36568
thorax -7.07227 1.63868 7.52067
lowerneck 0.311419 -7.2647 -6.97892
upperneck 8.33417 -10.32 9.61125
head 3.28488 -5.03457 3.69039
rclavicle 5.31749e-015 -8.07066e-014
rhumerus -41.3581 4.54784 -64.94
rradius 59.0088
rwrist -3.76947
rhand -15.011 -47.7112
rfingers 7.12502
rthumb 11.1541 -77.3947
lclavicle 5.31749e-015 -8.07066e-014
lhumerus -19.0777 -24.4576 81.0939
lradius 89.5451
lwrist 32.7682
lhand -19.3761 12.5588
lfingers 7.12502
lthumb 6.94211 42.425
rfemur -118.062 -25.6416 37.5221
rtibia 146.7
rfoot 4.09946 0.785634
rtoes -17.84
lfemur 12.1561 0.826007 -12.1895
ltibia 58.3948
lfoot -32.8298 36.282
ltoes -13.0293
834
root -1.84597 14.3167 15.6161 -19.2417 19.8981 -4.49928
lowerback 24.1706 3.74035 -8.42528
upperback 6.55958 3.20455 3.23063
thorax -6.77104 1.67855 7.4695
lowerneck 0.637779 -7.40018 -7.03612
upperneck 7.70089 -10.4898 9.84049
head 3.07154 -5.13337 3.78221
rclavicle 2.32578e-014 -2.3059e-014
rhumerus -41.7043 4.41587 -65.0245
rradius 59.6553
rwrist -3.94074
rhand -15.1674 -47.5639
rfingers 7.12502
rthumb 11.0033 -77.2555
lclavicle 2.32578e-014 -2.3059e-014
lhumerus -19.1079 -24.51 81.0345
lradius 89.5098
lwrist 32.4156
lhand -19.278 12.5911
lfingers 7.12502
lthumb 7.03681 42.4542
rfemur -113.654 -26.9064 35.4093
rtibia 143.692
rfoot 3.38903 2.48129
rtoes -17.3876
lfemur 11.4763 1.51942 -11.745
ltibia 58.5614
lfoot -33.5262 35.9032
ltoes -13.5906
835
root -1.87264 14.2677 15.7565 -18.2768 20.6376 -4.14851
lowerback 23.6367 3.73066 -8.59977
upperback 6.42594 3.18441 3.12485
thorax -6.64658 1.67055 7.46607
lowerneck 0.792399 -7.6759 -6.68209
upperneck 7.22946 -10.8158 9.54958
head 2.9003 -5.30551 3.63732
rclavicle -1.95803e-014 -1.98785e-014
rhumerus -42.3949 4.0099 -64.946
rradius 60.3813
rwrist -3.90056
rhand -14.8818 -47.5617
rfingers 7.12502
rthumb 11.2788 -77.2385
lclavicle -1.95803e-014 -1.98785e-014
lhumerus -19.1809 -24.8844 81.2442
lradius 89.3897
lwrist 32.0073
lhand -19.7985 12.7307
lfingers 7.12502
lthumb 6.5343 42.6099
rfemur -109.129 -28.6294 32.793
rtibia 139.947
rfoot 2.64803 4.11703
rtoes -16.9099
lfemur 10.8511 1.59728 -11.5099
ltibia 58.7155
lfoot -34.0346 35.5599
ltoes -14.3151
836
root -1.90109 14.2219 15.9109 -17.4415 21.1367 -3.94309
lowerback 23.1164 3.73931 -8.66282
upperback 6.31588 3.22248 3.11223
thorax -6.51354 1.68869 7.48528
lowerneck 0.854462 -7.81164 -6.73301
upperneck 6.98108 -10.9879 9.6243
head 2.8376 -5.39586 3.66603
rclavicle 6.84813e-014 -2.78299e-014
rhumerus -43.0474 3.79565 -64.8699
rradius 61.0377
rwrist -3.98123
rhand -14.7264 -47.5048
rfingers 7.12502
rthumb 11.4286 -77.1733
lclavicle 6.84813e-014 -2.78299e-014
lhumerus -19.2146 -25.1814 81.4867
lradius 89.2387
lwrist 31.5432
lhand -20.085 12.7509
lfingers 7.12502
lthumb 6.25772 42.6385
rfemur -104.384 -29.2718 30.142
rtibia 135.473
rfoot 2.33395 4.96424
rtoes -15.7365
lfemur 10.4732 1.77404 -11.0052
ltibia 58.7383
lfoot -34.5714 35.1222
ltoes -15.0123
837
root -1.92828 14.1741 16.0749 -16.598 21.7573 -3.56334
lowerback 22.6094 3.71778 -8.91708
upperback 6.20661 3.17552 3.07168
thorax -6.37386 1.66669 7.61072
lowerneck 0.909952 -7.92023 -6.72916
upperneck 6.84934 -11.1267 9.63403
head 2.8015 -5.46772 3.66632
rclavicle 3.71479e-014 3.02153e-014
rhumerus -43.6791 3.64919 -64.8188
rradius 61.5933
rwrist -4.01307
rhand -14.4856 -47.3465
rfingers 7.12502
rthumb 11.6608 -77.002
lclavicle 3.71479e-014 3.02153e-014
lhumerus -19.3313 -25.4092 81.7618
lradius 89.1062
lwrist 30.9749
lhand -20.2296 12.7442
lfingers 7.12502
lthumb 6.11815 42.6359
rfemur -99.8643 -29.4792 27.2615
rtibia 130.516
rfoot 2.53332 5.43838
rtoes -14.3625
lfemur 10.2139 1.8143 -10.7466
ltibia 58.6489
lfoot -35.028 34.7334
ltoes -15.8165
